<svg width="100" height="100" viewBox="0 0 100 100" fill="none" xmlns="http://www.w3.org/2000/svg">
<path d="M50 90.7618C72.5121 90.7618 90.7618 72.5121 90.7618 50C90.7618 27.4879 72.5121 9.23828 50 9.23828C27.4879 9.23828 9.23828 27.4879 9.23828 50C9.23828 72.5121 27.4879 90.7618 50 90.7618Z" stroke="#A8D0FF" stroke-width="3"/>
<mask id="mask0_371_3446" style="mask-type:luminance" maskUnits="userSpaceOnUse" x="10" y="10" width="80" height="80">
<path d="M49.9963 89.4369C71.7771 89.4369 89.434 71.7801 89.434 49.9992C89.434 28.2184 71.7771 10.5615 49.9963 10.5615C28.2155 10.5615 10.5586 28.2184 10.5586 49.9992C10.5586 71.7801 28.2155 89.4369 49.9963 89.4369Z" fill="white"/>
</mask>
<g mask="url(#mask0_371_3446)">
<path fill-rule="evenodd" clip-rule="evenodd" d="M45.0019 33.6387C45.0264 33.6977 45.0519 33.7563 45.0784 33.8144C45.105 33.8725 45.1326 33.9301 45.1612 33.9872C45.19 34.0443 45.2197 34.1009 45.2505 34.1569C45.2813 34.2129 45.313 34.2683 45.3458 34.3231C45.3786 34.3779 45.4124 34.4321 45.4472 34.4857C45.482 34.5393 45.5178 34.5922 45.5545 34.6445C45.5913 34.6968 45.629 34.7483 45.6676 34.7992C45.7063 34.8501 45.7459 34.9002 45.7864 34.9496C45.8268 34.9991 45.8682 35.0477 45.9104 35.0956C45.9528 35.1435 45.996 35.1906 46.04 35.2369C46.084 35.2832 46.1289 35.3287 46.1747 35.3733C46.2203 35.418 46.2668 35.4618 46.3141 35.5047C46.3614 35.5476 46.4095 35.5897 46.4584 35.6309C46.5072 35.672 46.5568 35.7123 46.6073 35.7516C46.6576 35.7909 46.7086 35.8293 46.7603 35.8668C46.8121 35.9042 46.8646 35.9407 46.9177 35.9762C46.9707 36.0118 47.0245 36.0463 47.079 36.0798C47.1333 36.1134 47.1883 36.1459 47.2439 36.1774C47.2994 36.2089 47.3555 36.2394 47.4123 36.2689C47.469 36.2983 47.5263 36.3267 47.584 36.354C47.6417 36.3814 47.6999 36.4076 47.7586 36.4328C47.8174 36.458 47.8765 36.4821 47.936 36.5051C47.9957 36.5281 48.0557 36.55 48.1161 36.5708C48.1765 36.5916 48.2373 36.6113 48.2984 36.6299C48.3596 36.6484 48.4211 36.6659 48.4829 36.6822C48.5447 36.6985 48.6067 36.7136 48.669 36.7276C48.7313 36.7416 48.7938 36.7545 48.8566 36.7662C48.9196 36.7779 48.9826 36.7884 49.0458 36.7978C49.109 36.8072 49.1723 36.8154 49.2357 36.8225C49.2992 36.8295 49.3629 36.8354 49.4265 36.8401C49.4903 36.8448 49.5541 36.8483 49.618 36.8507C49.6818 36.853 49.7456 36.8542 49.8096 36.8542C49.8735 36.8542 49.9374 36.853 50.0012 36.8507C50.065 36.8483 50.1288 36.8448 50.1926 36.8401C50.2563 36.8354 50.3199 36.8295 50.3834 36.8225C50.4469 36.8154 50.5102 36.8072 50.5734 36.7978C50.6365 36.7884 50.6996 36.7779 50.7625 36.7662C50.8253 36.7545 50.8878 36.7416 50.9501 36.7276C51.0124 36.7136 51.0745 36.6985 51.1363 36.6822C51.1981 36.6659 51.2595 36.6484 51.3207 36.6299C51.3818 36.6113 51.4426 36.5916 51.503 36.5708C51.5634 36.55 51.6234 36.5281 51.6831 36.5051C51.7426 36.4821 51.8018 36.458 51.8605 36.4328C51.9193 36.4076 51.9775 36.3814 52.0353 36.354C52.0929 36.3267 52.1501 36.2983 52.2069 36.2689C52.2636 36.2394 52.3197 36.2089 52.3752 36.1774C52.4308 36.1459 52.4858 36.1134 52.5403 36.0798C52.5947 36.0463 52.6484 36.0118 52.7015 35.9762C52.7546 35.9407 52.807 35.9042 52.8588 35.8668C52.9105 35.8293 52.9616 35.7909 53.0119 35.7516C53.0623 35.7123 53.1119 35.672 53.1607 35.6309C53.2097 35.5897 53.2578 35.5476 53.3051 35.5047C53.3523 35.4618 53.3988 35.418 53.4445 35.3733C53.4902 35.3287 53.5351 35.2832 53.5791 35.2369C53.6231 35.1906 53.6663 35.1435 53.7085 35.0956C53.7509 35.0477 53.7923 34.9991 53.8328 34.9496C53.8733 34.9002 53.9129 34.8501 53.9516 34.7992C53.9902 34.7483 54.0279 34.6968 54.0647 34.6445C54.1014 34.5922 54.1371 34.5393 54.1719 34.4857C54.2067 34.4321 54.2405 34.3779 54.2733 34.3231C54.3061 34.2683 54.3379 34.2129 54.3686 34.1569C54.3994 34.1009 54.4291 34.0443 54.4577 33.9872C54.4865 33.9301 54.5141 33.8725 54.5406 33.8144C54.5672 33.7563 54.5927 33.6977 54.6172 33.6387H75.8176C75.8796 33.6387 75.9414 33.6402 76.0032 33.6432C76.0651 33.6463 76.1269 33.6508 76.1884 33.6569C76.25 33.663 76.3115 33.6705 76.3728 33.6796C76.434 33.6887 76.4949 33.6993 76.5557 33.7114C76.6164 33.7234 76.6768 33.737 76.7369 33.752C76.7969 33.7671 76.8566 33.7836 76.9159 33.8016C76.9751 33.8195 77.0339 33.839 77.0921 33.8598C77.1504 33.8807 77.2081 33.9029 77.2654 33.9266C77.3225 33.9503 77.3791 33.9754 77.4351 34.0019C77.4911 34.0283 77.5463 34.0562 77.6009 34.0854C77.6555 34.1145 77.7094 34.1451 77.7625 34.1769C77.8156 34.2087 77.8678 34.2418 77.9193 34.2762C77.9709 34.3106 78.0215 34.3463 78.0712 34.3831C78.1209 34.42 78.1697 34.4581 78.2176 34.4974C78.2654 34.5366 78.3122 34.5771 78.3581 34.6187C78.404 34.6602 78.4489 34.7029 78.4926 34.7467C78.5364 34.7905 78.579 34.8353 78.6207 34.8812C78.6623 34.927 78.7027 34.9739 78.7419 35.0218C78.7812 35.0696 78.8193 35.1184 78.8562 35.1681C78.8931 35.2179 78.9287 35.2685 78.963 35.3199C78.9974 35.3714 79.0306 35.4237 79.0625 35.4768C79.0943 35.5299 79.1247 35.5838 79.1539 35.6384C79.1831 35.693 79.211 35.7483 79.2375 35.8042C79.264 35.8602 79.2891 35.9168 79.3128 35.974C79.3363 36.0312 79.3586 36.0889 79.3795 36.1472C79.4003 36.2055 79.4197 36.2643 79.4378 36.3235C79.4557 36.3828 79.4722 36.4424 79.4873 36.5025C79.5023 36.5625 79.5159 36.6229 79.528 36.6836C79.54 36.7444 79.5506 36.8053 79.5598 36.8666C79.5689 36.9278 79.5764 36.9893 79.5825 37.0509C79.5885 37.1125 79.5931 37.1742 79.5961 37.236C79.5991 37.2979 79.6006 37.3598 79.6006 37.4217V88.1138C79.6006 88.1757 79.5991 88.2375 79.5961 88.2993C79.5931 88.3613 79.5885 88.423 79.5825 88.4845C79.5764 88.5462 79.5689 88.6076 79.5598 88.6689C79.5506 88.7301 79.54 88.7911 79.528 88.8518C79.5159 88.9125 79.5023 88.9729 79.4873 89.033C79.4722 89.0931 79.4557 89.1527 79.4378 89.212C79.4197 89.2711 79.4003 89.3299 79.3795 89.3883C79.3586 89.4465 79.3363 89.5043 79.3128 89.5615C79.2891 89.6187 79.264 89.6752 79.2375 89.7312C79.211 89.7872 79.1831 89.8425 79.1539 89.8971C79.1247 89.9517 79.0943 90.0055 79.0625 90.0586C79.0306 90.1117 78.9974 90.164 78.963 90.2154C78.9287 90.267 78.8931 90.3176 78.8562 90.3673C78.8193 90.417 78.7812 90.4658 78.7419 90.5137C78.7027 90.5615 78.6623 90.6084 78.6207 90.6543C78.579 90.7002 78.5364 90.745 78.4926 90.7887C78.4489 90.8325 78.404 90.8752 78.3581 90.9168C78.3122 90.9584 78.2654 90.9988 78.2176 91.038C78.1697 91.0774 78.1209 91.1155 78.0712 91.1523C78.0215 91.1892 77.9709 91.2249 77.9193 91.2592C77.8678 91.2936 77.8156 91.3267 77.7625 91.3586C77.7094 91.3904 77.6555 91.4209 77.6009 91.45C77.5463 91.4793 77.4911 91.5071 77.4351 91.5336C77.3791 91.5601 77.3225 91.5852 77.2654 91.6089C77.2081 91.6325 77.1504 91.6547 77.0921 91.6757C77.0339 91.6965 76.9751 91.7159 76.9159 91.7339C76.8566 91.7518 76.7969 91.7683 76.7369 91.7835C76.6768 91.7985 76.6164 91.812 76.5557 91.8241C76.4949 91.8361 76.434 91.8467 76.3728 91.8559C76.3115 91.865 76.25 91.8726 76.1884 91.8786C76.1269 91.8847 76.0651 91.8892 76.0032 91.8922C75.9414 91.8953 75.8796 91.8968 75.8176 91.8968H24.3689C24.307 91.8968 24.2451 91.8953 24.1833 91.8922C24.1215 91.8892 24.0598 91.8847 23.9981 91.8786C23.9365 91.8726 23.8751 91.865 23.8139 91.8559C23.7526 91.8467 23.6916 91.8361 23.6309 91.8241C23.5702 91.812 23.5098 91.7985 23.4497 91.7835C23.3897 91.7683 23.33 91.7518 23.2708 91.7339C23.2115 91.7159 23.1528 91.6965 23.0945 91.6757C23.0362 91.6547 22.9784 91.6325 22.9212 91.6089C22.864 91.5852 22.8075 91.5601 22.7515 91.5336C22.6955 91.5071 22.6403 91.4793 22.5856 91.45C22.531 91.4209 22.4772 91.3904 22.4241 91.3586C22.371 91.3267 22.3187 91.2936 22.2672 91.2592C22.2157 91.2249 22.1651 91.1892 22.1154 91.1523C22.0657 91.1155 22.0169 91.0774 21.969 91.038C21.9212 90.9988 21.8743 90.9584 21.8284 90.9168C21.7826 90.8752 21.7377 90.8325 21.6939 90.7887C21.6502 90.745 21.6075 90.7002 21.5659 90.6543C21.5243 90.6084 21.4839 90.5615 21.4446 90.5137C21.4054 90.4658 21.3673 90.417 21.3304 90.3673C21.2935 90.3176 21.2579 90.267 21.2235 90.2154C21.1891 90.164 21.156 90.1117 21.1241 90.0586C21.0923 90.0055 21.0618 89.9517 21.0326 89.8971C21.0034 89.8425 20.9756 89.7872 20.9491 89.7312C20.9227 89.6752 20.8976 89.6187 20.8739 89.5615C20.8502 89.5043 20.8279 89.4465 20.8071 89.3883C20.7862 89.3299 20.7668 89.2711 20.7488 89.212C20.7309 89.1527 20.7144 89.0931 20.6993 89.033C20.6843 88.9729 20.6707 88.9125 20.6586 88.8518C20.6466 88.7911 20.636 88.7301 20.6269 88.6689C20.6178 88.6076 20.6102 88.5462 20.6042 88.4845C20.5981 88.423 20.5935 88.3613 20.5905 88.2993C20.5875 88.2375 20.5859 88.1757 20.5859 88.1138V37.4217C20.5859 37.3598 20.5875 37.2979 20.5905 37.236C20.5935 37.1742 20.5981 37.1125 20.6042 37.0509C20.6102 36.9893 20.6178 36.9278 20.6269 36.8666C20.636 36.8053 20.6466 36.7444 20.6586 36.6836C20.6707 36.6229 20.6843 36.5625 20.6993 36.5025C20.7144 36.4424 20.7309 36.3828 20.7488 36.3235C20.7668 36.2643 20.7862 36.2055 20.8071 36.1472C20.8279 36.0889 20.8502 36.0312 20.8739 35.974C20.8976 35.9168 20.9227 35.8602 20.9491 35.8042C20.9756 35.7483 21.0034 35.693 21.0326 35.6384C21.0618 35.5838 21.0923 35.5299 21.1241 35.4768C21.156 35.4237 21.1891 35.3714 21.2235 35.3199C21.2579 35.2685 21.2935 35.2179 21.3304 35.1681C21.3673 35.1184 21.4054 35.0696 21.4446 35.0218C21.4839 34.9739 21.5243 34.927 21.5659 34.8812C21.6075 34.8353 21.6502 34.7905 21.6939 34.7467C21.7377 34.7029 21.7826 34.6602 21.8284 34.6187C21.8743 34.5771 21.9212 34.5366 21.969 34.4974C22.0169 34.4581 22.0657 34.42 22.1154 34.3831C22.1651 34.3463 22.2157 34.3106 22.2672 34.2762C22.3187 34.2418 22.371 34.2087 22.4241 34.1769C22.4772 34.1451 22.531 34.1145 22.5856 34.0854C22.6403 34.0562 22.6955 34.0283 22.7515 34.0019C22.8075 33.9754 22.864 33.9503 22.9212 33.9266C22.9784 33.9029 23.0362 33.8807 23.0945 33.8598C23.1528 33.839 23.2115 33.8195 23.2708 33.8016C23.33 33.7836 23.3897 33.7671 23.4497 33.752C23.5098 33.737 23.5702 33.7234 23.6309 33.7114C23.6916 33.6993 23.7526 33.6887 23.8139 33.6796C23.8751 33.6705 23.9365 33.663 23.9981 33.6569C24.0598 33.6508 24.1215 33.6463 24.1833 33.6432C24.2451 33.6402 24.307 33.6387 24.3689 33.6387H45.0019Z" fill="url(#paint0_linear_371_3446)"/>
<path d="M66.549 47.0684H33.2587C32.214 47.0684 31.3672 47.9152 31.3672 48.9599V53.3103C31.3672 54.3549 32.214 55.2018 33.2587 55.2018H66.549C67.5937 55.2018 68.4405 54.3549 68.4405 53.3103V48.9599C68.4405 47.9152 67.5937 47.0684 66.549 47.0684Z" fill="white"/>
<path d="M61.6288 62.3896H35.9044C35.2776 62.3896 34.7695 62.8978 34.7695 63.5245C34.7695 64.1513 35.2776 64.6594 35.9044 64.6594H61.6288C62.2556 64.6594 62.7637 64.1513 62.7637 63.5245C62.7637 62.8978 62.2556 62.3896 61.6288 62.3896Z" fill="white"/>
<path d="M32.4982 64.6594C33.125 64.6594 33.6331 64.1513 33.6331 63.5245C33.6331 62.8978 33.125 62.3896 32.4982 62.3896C31.8714 62.3896 31.3633 62.8978 31.3633 63.5245C31.3633 64.1513 31.8714 64.6594 32.4982 64.6594Z" fill="white"/>
<path d="M52.9279 71.8467H35.9044C35.2776 71.8467 34.7695 72.3548 34.7695 72.9816C34.7695 73.6084 35.2776 74.1165 35.9044 74.1165H52.9279C53.5547 74.1165 54.0628 73.6084 54.0628 72.9816C54.0628 72.3548 53.5547 71.8467 52.9279 71.8467Z" fill="white"/>
<path d="M32.4982 74.1165C33.125 74.1165 33.6331 73.6084 33.6331 72.9816C33.6331 72.3548 33.125 71.8467 32.4982 71.8467C31.8714 71.8467 31.3633 72.3548 31.3633 72.9816C31.3633 73.6084 31.8714 74.1165 32.4982 74.1165Z" fill="white"/>
<path d="M62.7663 23.8032C64.5422 23.8032 65.9819 22.3635 65.9819 20.5876C65.9819 18.8117 64.5422 17.3721 62.7663 17.3721C60.9904 17.3721 59.5508 18.8117 59.5508 20.5876C59.5508 22.3635 60.9904 23.8032 62.7663 23.8032Z" fill="url(#paint1_linear_371_3446)"/>
<path d="M33.4487 28.0589C33.4487 26.962 32.5595 26.0728 31.4626 26.0728C30.3658 26.0728 29.4766 26.962 29.4766 28.0589C29.4766 29.1557 30.3658 30.0449 31.4626 30.0449C32.5595 30.0449 33.4487 29.1557 33.4487 28.0589Z" fill="url(#paint2_linear_371_3446)"/>
<path d="M77.7104 35.2464C77.7104 34.1495 76.8212 33.2603 75.7244 33.2603C74.6275 33.2603 73.7383 34.1495 73.7383 35.2464C73.7383 36.3432 74.6275 37.2324 75.7244 37.2324C76.8212 37.2324 77.7104 36.3432 77.7104 35.2464Z" fill="url(#paint3_linear_371_3446)"/>
</g>
<defs>
<linearGradient id="paint0_linear_371_3446" x1="25.1255" y1="37.9891" x2="61.022" y2="100.999" gradientUnits="userSpaceOnUse">
<stop stop-color="#B5D7FF"/>
<stop offset="1" stop-color="#0075FF"/>
</linearGradient>
<linearGradient id="paint1_linear_371_3446" x1="62.7663" y1="17.3721" x2="62.7663" y2="23.8032" gradientUnits="userSpaceOnUse">
<stop stop-color="#B0C6FF"/>
<stop offset="1" stop-color="#B0D0FF" stop-opacity="0"/>
</linearGradient>
<linearGradient id="paint2_linear_371_3446" x1="29.4766" y1="28.0589" x2="33.4487" y2="28.0589" gradientUnits="userSpaceOnUse">
<stop stop-color="#B0C6FF"/>
<stop offset="1" stop-color="#B0D0FF" stop-opacity="0"/>
</linearGradient>
<linearGradient id="paint3_linear_371_3446" x1="73.7383" y1="35.2464" x2="77.7104" y2="35.2464" gradientUnits="userSpaceOnUse">
<stop stop-color="#B0D0FF" stop-opacity="0.53"/>
<stop offset="1" stop-color="#B0D4FF" stop-opacity="0"/>
</linearGradient>
</defs>
</svg>
